<?xml version="1.0" standalone="no"?><!DOCTYPE svg PUBLIC "-//W3C//DTD SVG 1.1//EN" "http://www.w3.org/Graphics/SVG/1.1/DTD/svg11.dtd"><svg t="1513871390712" class="icon" style="" viewBox="0 0 1024 1024" version="1.1" xmlns="http://www.w3.org/2000/svg" p-id="1016" xmlns:xlink="http://www.w3.org/1999/xlink" width="81" height="81"><defs><style type="text/css"></style></defs><path d="M806.16084 540.8c-51.008 0-92.32 41.344-92.32 92.32 0 51.008 41.344 92.352 92.32 92.352 51.008 0 92.352-41.344 92.352-92.352 0-50.976-41.344-92.32-92.352-92.32z m0 143.2c-28.096 0-50.88-22.784-50.88-50.88 0-28.096 22.784-50.88 50.88-50.88 28.096 0 50.88 22.784 50.88 50.88 0 28.096-22.784 50.88-50.88 50.88zM209.16884 540.8c-51.008 0-92.32 41.344-92.32 92.32 0 51.008 41.344 92.352 92.32 92.352 51.008 0 92.352-41.344 92.352-92.352 0-50.976-41.344-92.32-92.352-92.32z m0 143.2c-28.096 0-50.88-22.784-50.88-50.88 0-28.096 22.784-50.88 50.88-50.88 28.096 0 50.88 22.784 50.88 50.88 0 28.096-22.752 50.88-50.88 50.88z" p-id="1017" fill="#F86161"></path><path d="M1024.01684 439.424s-5.664-27.136-55.392-36.192c-22.304-4.064-45.056-13.344-64.704-23.36-24.192-12.352-75.68-50.528-115.648-63.712-44.768-14.752-114.432-29.408-152.064-29.408-17.408 0-34.944 0.416-51.488 0.832-100.576 2.56-140.128 18.976-193.024 37.28-32.384 11.2-67.008 23.968-94.464 36-93.664 40.992-77.088 33.312-127.968 50.272S6.41684 446.208 0.75284 526.464c-5.664 80.288 21.472 117.6 53.152 116.448h37.056c-0.256-3.232-0.48-6.496-0.48-9.792 0-65.568 53.152-118.72 118.72-118.72s118.72 53.152 118.72 118.72c0 3.296-0.224 6.56-0.48 9.792h360.544c-0.256-3.232-0.48-6.496-0.48-9.792 0-65.568 53.152-118.72 118.72-118.72s118.72 53.152 118.72 118.72c0 3.296-0.224 6.56-0.48 9.792h30.656s70.112 5.664 68.96-63.328-0.064-140.16-0.064-140.16z m-926.016 50.88c-44.096 4.512-72.64 37.312-72.64 37.312-8.48-46.368 56.544-65.92 65.568-63.584 9.056 2.304 7.072 26.272 7.072 26.272z m200.512-63.328c-43.104-21.792 48.608-60.544 122.72-86.336 41.472-14.432 71.424-24.8 147.2-26.528l1.216 106.784c-134.72 3.328-271.136 6.08-271.136 6.08z m298.304-6.752l-1.216-106.176c32.992 0.352 64.8 2.784 89.792 5.536 21.472 2.368 47.328 9.024 68.48 16.256l0.992 79.904c-42.848 1.472-99.328 3.008-158.048 4.48z m233.856-8.32c-2.016 0.8-20.288 1.792-48.672 2.88l-0.832-68.096c20 9.344 41.024 19.616 49.504 25.28 18.08 12.032 11.296 35.424 0 39.936z" p-id="1018" fill="#F86161"></path></svg>