<?xml version="1.0" standalone="no"?><!DOCTYPE svg PUBLIC "-//W3C//DTD SVG 1.1//EN" "http://www.w3.org/Graphics/SVG/1.1/DTD/svg11.dtd"><svg t="1514449239352" class="icon" style="" viewBox="0 0 1024 1024" version="1.1" xmlns="http://www.w3.org/2000/svg" p-id="8238" xmlns:xlink="http://www.w3.org/1999/xlink" width="16" height="16"><defs><style type="text/css"></style></defs><path d="M512 0C229.2736 0 0 229.2736 0 512s229.2736 512 512 512 512-229.2736 512-512S794.7264 0 512 0zM303.4112 312.9344c36.6592 0 66.3552 29.696 66.3552 66.3552 0 36.6592-29.696 66.3552-66.3552 66.3552s-66.3552-29.696-66.3552-66.3552C237.056 342.6304 266.752 312.9344 303.4112 312.9344zM764.3136 745.1648C758.5792 756.736 746.7008 764.7232 732.8768 764.7232S707.072 756.736 700.7232 745.1648C666.2144 675.7376 594.8416 627.9168 512 627.8144 429.1584 627.9168 357.7856 675.7376 322.6624 745.1648 316.928 756.736 304.9472 764.7232 291.1232 764.7232S265.4208 756.736 259.6864 745.1648C257.3312 740.4544 256 735.232 256 729.6c0-3.4816 0.512-6.7584 1.4336-9.9328 0.4096-1.2288 0.8192-2.56 1.3312-3.6864 0.512-1.3312 1.2288-2.6624 1.9456-3.8912 46.3872-91.7504 141.312-154.7264 251.5968-154.7264 109.8752 0 204.6976 62.976 251.0848 154.7264 0.7168 1.2288 1.3312 2.56 1.9456 3.8912 0.512 1.2288 0.9216 2.4576 1.3312 3.6864C767.488 722.8416 768 726.1184 768 729.6 768 735.232 766.6688 740.4544 764.3136 745.1648zM720.5888 445.6448c-36.6592 0-66.3552-29.696-66.3552-66.3552 0-36.6592 29.696-66.3552 66.3552-66.3552 36.6592 0 66.3552 29.696 66.3552 66.3552C786.944 415.9488 757.248 445.6448 720.5888 445.6448z" p-id="8239" fill="#999999"></path></svg>