<?xml version="1.0" standalone="no"?><!DOCTYPE svg PUBLIC "-//W3C//DTD SVG 1.1//EN" "http://www.w3.org/Graphics/SVG/1.1/DTD/svg11.dtd"><svg t="1514430720587" class="icon" style="" viewBox="0 0 1024 1024" version="1.1" xmlns="http://www.w3.org/2000/svg" p-id="8467" xmlns:xlink="http://www.w3.org/1999/xlink" width="16" height="16"><defs><style type="text/css"></style></defs><path d="M822.824563 241.678109L631.379499 50.233044c-16.663262-16.663262-39.529635-26.880152-64.950232-27.001781L142.549947 21.771707C75.045492 23.352892 20.79867 77.721345 20.79867 145.225799v735.737736c0 68.112602 55.21986 123.210833 123.210832 123.210833H574.213565c-22.258225-16.784891-41.962228-36.124005-58.86875-57.774083l0.12163 0.12163H142.549947c-36.367265-0.12163-65.68001-29.556004-65.80164-65.801639V145.225799c0-36.245635 29.677634-65.801639 64.220454-65.801639 3.284 0 348.468939 0 437.258582 1.702815l6.568001 4.986815V212.851883c0 40.867561 33.204894 74.072455 74.072455 74.072455h128.319278l4.986815 4.986815v161.767431c19.825632 2.189334 39.043117 6.203112 57.652453 12.041335V306.74997c0-25.420596-10.33852-48.4086-27.001782-65.071861z" p-id="8468" fill="#a7a7a7"></path><path d="M234.745219 698.154175c-16.420002 0-31.258819 13.136002-31.258819 31.258819 0 16.420002 13.136002 31.258819 31.258819 31.25882h216.014254c0-0.729778-0.12163-1.337926-0.12163-2.067704 0-20.67704 2.067704-40.867561 6.081482-60.449935H234.745219zM757.631073 683.923506c-38.07008 0-66.531417 31.258819-66.531417 72.977789s28.582967 72.977788 66.531417 72.977788c38.07008 0 66.531417-31.258819 66.531417-72.977788 1.702815-40.016154-28.461337-72.977788-66.531417-72.977789z" p-id="8469" fill="#a7a7a7"></path><path d="M757.631073 574.456824c-110.926238 0-207.621808 76.505048-245.570258 184.268915 38.07008 107.763867 133.062834 184.268916 245.570258 184.268916S965.25288 864.786792 1003.20133 757.022924c-37.94845-106.182682-132.941204-182.5661-245.570257-182.5661z m0 305.898563c-61.787861 0-110.926238-53.881934-110.926239-121.629648s49.138377-121.629647 110.926239-121.629647c61.787861 0 110.926238 53.881934 110.926238 121.629647 1.702815 67.747714-47.435562 121.629647-110.926238 121.629648zM667.138615 390.431168c-1.702815-16.420002-14.838817-31.258819-32.961634-31.25882H234.745219c-16.420002 0-31.258819 13.136002-31.258819 31.25882 0 16.420002 13.136002 31.258819 31.258819 31.258819h401.134577c16.420002 0 31.258819-13.136002 31.258819-31.258819zM554.99608 528.602447H234.745219c-16.420002 0-31.258819 13.136002-31.258819 31.258819 0 18.122817 13.136002 31.258819 31.258819 31.25882h265.882409c0 0.12163 25.907115-40.989191 54.368452-62.517639z" p-id="8470" fill="#a7a7a7"></path></svg>