<?xml version="1.0" standalone="no"?><!DOCTYPE svg PUBLIC "-//W3C//DTD SVG 1.1//EN" "http://www.w3.org/Graphics/SVG/1.1/DTD/svg11.dtd"><svg t="1514449465443" class="icon" style="" viewBox="0 0 1024 1024" version="1.1" xmlns="http://www.w3.org/2000/svg" p-id="9173" xmlns:xlink="http://www.w3.org/1999/xlink" width="16" height="16"><defs><style type="text/css"></style></defs><path d="M512 19.795q101.37 0 191.476 38.858t156.559 105.312 105.312 156.559 38.858 191.476q0 102.496-38.858 192.039t-105.312 156.559-156.559 105.312-191.476 38.295q-102.496 0-192.039-38.295t-156.559-105.312-105.875-156.559-38.858-192.039q0-101.37 38.858-191.476t105.875-156.559 156.559-105.312 192.039-38.858zM689.959 264.207q-32.664 0-55.191 27.032t-22.527 65.327q0 39.421 22.527 66.454t55.191 27.032 55.191-27.032 22.527-66.454q0-38.295-22.527-65.327t-55.191-27.032zM325.030 266.461q-31.538 0-53.501 27.032t-21.963 65.327q0 39.421 21.963 65.89t53.501 26.468 54.065-26.468 22.527-65.89q0-38.295-22.527-65.327t-54.065-27.032zM516.505 878.056q59.695 0 113.196-21.401t96.3-58.569 72.648-86.727 42.238-105.875v-5.631q0-9.011-6.758-16.331t-16.894-7.322h-602.585q-10.137 0-18.585 7.322t-6.196 16.331q2.252 11.263 3.379 15.768t2.252 6.758q14.642 54.065 45.053 100.806t71.522 81.095 92.922 54.065 111.507 19.711z" p-id="9174" fill="#999999"></path></svg>