<?xml version="1.0" encoding="UTF-8"?>
<svg width="110px" height="36px" viewBox="0 0 110 36" version="1.1" xmlns="http://www.w3.org/2000/svg" xmlns:xlink="http://www.w3.org/1999/xlink">
    <!-- Generator: Sketch 47.1 (45422) - http://www.bohemiancoding.com/sketch -->
    <title>personal-car-side-view-silhouette</title>
    <desc>Created with Sketch.</desc>
    <defs></defs>
    <g id="Page-1" stroke="#FE4D3D" stroke-width="1" fill="#FE4D3D" fill-rule="evenodd">
        <g id="a02我的卡" transform="translate(-102.000000, -727.000000)" fill-rule="nonzero">
            <g id="personal-car-side-view-silhouette" transform="translate(102.000000, 727.000000)">
                <path d="M108.291,18.2926667 C108.291,18.2926667 108.016667,13.7703333 107.462667,12.1116667 C106.910333,10.4546667 106.912,10.4546667 107.738667,9.40533333 C108.565333,8.35733333 105.308333,9.074 104.754333,9.18433333 C104.202,9.29666667 104.423,9.68133333 104.423,9.68133333 C98.0156667,9.95766667 83.322,1.728 71.6696667,0.568 C60.017,-0.590333333 48.6373333,0.514333333 44.4396667,1.507 C40.242,2.501 26.4336667,9.95766667 24.889,10.3443333 C23.344,10.731 24.0053333,9.95766667 24.0053333,9.95766667 C16.0536667,10.2873333 2.411,17.0826667 2.411,17.0826667 C1.85866667,17.4693333 1.41666667,19.7336667 1.41666667,19.7336667 L1.693,20.507 C-0.571666667,22.6076667 0.091,27.0263333 0.091,27.0263333 L1.19933333,26.638 C1.591,27.356 1.693,28.9576667 1.693,28.9576667 C-0.183333333,29.8413333 1.196,30.615 1.196,30.615 C1.196,30.615 2.026,29.8986667 5.39366667,30.948 C6.695,31.352 9.59333333,31.4933333 12.662,31.516 C12.2306667,30.4266667 11.9853333,29.2446667 11.9853333,28.0033333 C11.9853333,22.7233333 16.2796667,18.429 21.5596667,18.429 C26.8376667,18.429 31.134,22.7233333 31.134,28.0033333 C31.134,29.1493333 30.92,30.2456667 30.549,31.2673333 L79.7046667,31.1846667 C79.3526667,30.1866667 79.1506667,29.1203333 79.1506667,28.0033333 C79.1506667,22.7233333 83.4453333,18.429 88.7253333,18.429 C94.0033333,18.429 98.2996667,22.7233333 98.2996667,28.0033333 C98.2996667,28.9853333 98.1496667,29.9346667 97.8733333,30.8273333 C102.765,29.6966667 108.463,28.9043333 108.463,28.9043333 L109.512,27.5233333 C109.512,27.5233333 110.340333,21.6136667 109.512,20.6743333 C108.682667,19.7373333 108.291,18.2926667 108.291,18.2926667 Z" id="Shape" fill="#FE4D3D"></path>
                <path d="M21.5573333,34.8066667 C24.2259364,34.8066667 26.6073402,33.2434153 27.7180454,30.8475433 C28.1407109,29.9337051 28.3626667,28.9771779 28.3626667,27.9996667 C28.3626667,24.2404065 25.3151703,21.193 21.556,21.193 C17.7959325,21.193 14.749,24.2393035 14.749,27.9996667 C14.749,29.0496345 15.0120865,30.0770151 15.5105789,31.0558012 C16.6724048,33.3431461 18.9789906,34.8066667 21.5573333,34.8066667 Z" id="Shape" stroke="#EAEAEA" stroke-width="2"></path>
                <path d="M88.721,34.8066667 C91.3554625,34.8066667 93.7089623,33.2801511 94.8382847,30.9232819 C95.2887253,29.9874923 95.5263333,29.0031476 95.5263333,27.9996667 C95.5263333,24.2403615 92.478792,21.193 88.7193333,21.193 C84.9590543,21.193 81.9123333,24.2391818 81.9123333,27.9996667 C81.9123333,28.9541207 82.119406,29.8879621 82.5133555,30.7679345 C83.6075891,33.206461 86.0176927,34.8066667 88.721,34.8066667 Z" id="Shape" stroke="#EAEAEA" stroke-width="2"></path>
            </g>
        </g>
    </g>
</svg>