<?xml version="1.0" encoding="UTF-8"?>
<svg width="90px" height="43px" viewBox="0 0 90 43" version="1.1" xmlns="http://www.w3.org/2000/svg" xmlns:xlink="http://www.w3.org/1999/xlink">
    <!-- Generator: Sketch 47.1 (45422) - http://www.bohemiancoding.com/sketch -->
    <title>van-black-shape-in-right-direction</title>
    <desc>Created with Sketch.</desc>
    <defs></defs>
    <g id="Page-1" stroke="none" stroke-width="1" fill="none" fill-rule="evenodd">
        <g id="a02我的卡" transform="translate(-550.000000, -721.000000)" fill-rule="nonzero">
            <g id="van-black-shape-in-right-direction" transform="translate(595.000000, 742.500000) scale(-1, 1) translate(-595.000000, -742.500000) translate(550.000000, 721.000000)">
                <path d="M4.97866242,34.3391083 C6.14101911,34.465414 7.44057325,34.5764331 8.83987261,34.6761783 C8.89509554,29.6797452 12.9726115,25.6287898 17.9826115,25.6287898 C23.0277707,25.6287898 27.1318471,29.7338217 27.1318471,34.7770701 C27.1318471,34.9402548 27.1150318,35.0965605 27.1077707,35.2582166 C38.8188535,35.3606369 52.126051,35.1410828 63.085414,34.8905732 C63.085414,34.8523567 63.0792994,34.8154777 63.0792994,34.7770701 C63.0792994,29.7338217 67.1829936,25.6287898 72.2277707,25.6287898 C77.1515924,25.6287898 81.166242,29.5402548 81.3569427,34.4172611 C83.1970701,34.3696815 84.5078981,34.3391083 85.1075159,34.3391083 C90.2327389,34.3391083 89.9824204,34.4638854 89.9824204,29.5884076 C89.9824204,24.7136943 88.7327389,25.4633121 88.7327389,25.4633121 C88.7327389,17.4643949 87.9829299,20.9642675 82.3578344,15.316051 C76.7312102,9.67012739 60.9804459,1.96414013 60.9804459,1.96414013 C60.9804459,1.96414013 10.103121,-2.53624204 5.10324841,2.71414013 C0.103375796,7.96433121 0.727070064,30.4643312 0.727070064,30.4643312 C-2.27273885,35.0894904 4.97866242,34.3391083 4.97866242,34.3391083 Z" id="Shape" fill="#EAEAEA"></path>
                <path d="M17.9824204,28.1287898 C14.3140023,28.1287898 11.3392233,31.1012066 11.3349045,34.7684713 L11.3349045,34.7753503 C11.3349045,38.4482371 14.3117238,41.4251592 17.983949,41.4251592 C21.4923965,41.4251592 24.372969,38.6844591 24.5865128,35.1837881 C24.5918524,35.091569 24.5993156,35.028376 24.6166687,34.9035173 L24.6188912,34.8875074 C24.6287848,34.8160516 24.631465,34.7888992 24.631465,34.7753051 C24.6316311,31.1058824 21.6538705,28.1287898 17.9824204,28.1287898 Z" id="Shape" stroke="#EAEAEA" stroke-width="2"></path>
                <path d="M65.5778187,34.7199305 C65.5806148,34.7444971 65.5818417,34.7703786 65.5853594,34.8445801 C65.6234576,38.4895278 68.5822717,41.426879 72.2245223,41.426879 C75.8971225,41.426879 78.8743312,38.449773 78.8743312,34.776879 C78.8743312,34.7902866 78.8738181,34.7853058 78.8691415,34.7525614 L78.8680727,34.7450884 C78.8530306,34.6399739 78.8465354,34.5843106 78.8431159,34.4996801 C78.6931972,30.9418643 75.7843511,28.1287898 72.2258599,28.1287898 C68.5740515,28.1287898 65.6084244,31.0754622 65.5778187,34.7199305 Z M65.5778187,34.7199305 C65.5776594,34.7388945 65.5775796,34.7578775 65.5775796,34.776879 C65.5743634,34.7152255 65.5730864,34.6907462 65.5720299,34.6786165 C65.5746593,34.6958868 65.576432,34.707747 65.5778187,34.7199305 Z M63.5927663,34.9665606 C63.5930345,34.9682236 63.5933228,34.9699797 63.5936348,34.9718805 L63.5932548,34.9694265 C63.5930887,34.9684524 63.5929259,34.9674976 63.5927663,34.9665606 Z M63.5863905,34.9233703 C63.5859777,34.9006124 63.5856521,34.8778328 63.585414,34.8550318 C63.5892204,34.9399098 63.58951,34.9463682 63.5927663,34.9665606 C63.5898144,34.9492327 63.5879462,34.9379931 63.5863905,34.9233703 Z" id="Shape" stroke="#EAEAEA" stroke-width="2"></path>
            </g>
        </g>
    </g>
</svg>