<?xml version="1.0" encoding="UTF-8"?>
<svg width="90px" height="41px" viewBox="0 0 90 41" version="1.1" xmlns="http://www.w3.org/2000/svg" xmlns:xlink="http://www.w3.org/1999/xlink">
    <!-- Generator: Sketch 47.1 (45422) - http://www.bohemiancoding.com/sketch -->
    <title>car-black-case-over-wheels</title>
    <desc>Created with Sketch.</desc>
    <defs></defs>
    <g id="Page-1" stroke="none" stroke-width="1" fill="#FE4D3D" fill-rule="evenodd">
        <g id="a02我的卡" transform="translate(-330.000000, -725.000000)" fill-rule="nonzero">
            <g id="car-black-case-over-wheels" transform="translate(330.000000, 725.000000)">
                <path d="M2.43055556,21.8862963 C-1.47703704,25.795 0.523333333,21.8862963 0.431666667,28.7916667 C0.352962963,34.782037 4.02981481,34.8925926 5.00833333,34.8168519 C4.81648148,34.0814815 4.70296296,33.3133333 4.70296296,32.5185185 C4.70296296,27.4975926 8.78796296,23.4112963 13.8094444,23.4112963 C18.8301852,23.4112963 22.9155556,27.4974074 22.9155556,32.5185185 C22.9155556,33.3177778 22.8027778,34.0903704 22.6075926,34.8288889 C36.1975926,34.8385185 55.0974074,34.8027778 69.2361111,34.5868519 C69.0809259,33.9211111 68.9905556,33.2311111 68.9905556,32.5185185 C68.9905556,27.4975926 73.0751852,23.4112963 78.0962963,23.4112963 C83.1181481,23.4112963 87.2037037,27.4974074 87.2037037,32.5185185 C87.2037037,33.0253704 87.1509259,33.5181481 87.0714815,34.0037037 C88.0822222,33.9131481 88.6988889,33.8122222 88.8392593,33.7 C90.6566667,32.2461111 89.9294444,23.1598148 87.4751852,21.2533333 C85.0218519,19.3461111 86.3842593,18.3457407 86.2953704,14.8016667 C86.2455556,12.8914815 84.6687037,10.1742593 83.222963,8.06518519 C84.3731481,7.73092593 85.4990741,7.34240741 86.5751852,6.78944444 C86.7109259,6.72 86.795,6.62537037 86.8898148,6.53666667 L86.8898148,6.53666667 C87.3357407,6.12222222 87.3788889,5.55 87.1509259,5.05111111 C87.1457407,5.03074074 87.1353704,5.01222222 87.1272222,4.9912963 C87.1018519,4.93962963 87.0788889,4.88851852 87.0462963,4.8387037 C86.8361111,4.40166667 86.4459259,4.04351852 85.8394444,3.98833333 C84.0903704,3.8312963 82.367037,3.77055556 80.6831481,3.22240741 C80.4894444,3.16018519 80.3151852,3.15240741 80.1474074,3.16148148 L80.1175926,3.07833333 C80.1175926,3.07833333 66.9427778,-0.283148148 50.3157407,0.0805555556 C33.6862963,0.443703704 33.232963,10.4372222 18.8766667,11.4375926 C4.52111111,12.4377778 2.43055556,21.8862963 2.43055556,21.8862963 Z" id="Shape" fill="#FE4D3D"></path>
                <path d="M13.8092593,25.8637037 C10.1354189,25.8637037 7.15666667,28.8428543 7.15666667,32.517037 C7.15666667,33.141275 7.27021231,33.777084 7.49498464,34.4941187 C8.36152101,37.2593553 10.8942252,39.1698148 13.8109259,39.1698148 C16.7159427,39.1698148 19.2420585,37.2732632 20.1181825,34.5215696 C20.3478947,33.8026285 20.4648148,33.1536282 20.4648149,32.5174314 C20.4633657,28.8426078 17.4840633,25.8637037 13.8092593,25.8637037 Z" id="Shape" stroke="#EAEAEA" stroke-width="2"></path>
                <path d="M78.0977778,25.8637037 C74.425166,25.8637037 71.4459259,28.8432924 71.4459259,32.517037 C71.4459259,33.0696933 71.5372945,33.6349785 71.7201699,34.2947858 C72.5181301,37.1591572 75.1039539,39.1705556 78.097963,39.1705556 C81.2525899,39.1705556 83.9537181,36.9548907 84.601701,33.9068759 C84.7007607,33.4391596 84.7514815,32.9777728 84.7514815,32.5185623 C84.7513205,28.8432595 81.7720137,25.8637037 78.0977778,25.8637037 Z" id="Shape" stroke="#EAEAEA" stroke-width="2"></path>
            </g>
        </g>
    </g>
</svg>