<?xml version="1.0" standalone="no"?><!DOCTYPE svg PUBLIC "-//W3C//DTD SVG 1.1//EN" "http://www.w3.org/Graphics/SVG/1.1/DTD/svg11.dtd"><svg t="1514430955936" class="icon" style="" viewBox="0 0 1024 1024" version="1.1" xmlns="http://www.w3.org/2000/svg" p-id="9826" xmlns:xlink="http://www.w3.org/1999/xlink" width="16" height="16"><defs><style type="text/css"></style></defs><path d="M941.4 609.6c-7.5-7.4-16.9-13.2-27.5-16.6-13.7-4.5-25.3-11.3-34.4-20.2a85.121 85.121 0 0 1 0-121.8c9.1-8.9 20.7-15.7 34.4-20.2 28.7-9.4 48-35.7 48.1-65.4v-100c0-27.6-10.9-53.5-30.8-73.1-19.9-19.5-46.3-30.3-74.5-30.3H167.3C109.2 162 62 208.4 62 265.3v100.4c0 18.7 7.7 36.1 20.6 48.7 7.4 7.3 16.6 13 27 16.5 13.4 4.5 24.8 11.2 33.8 20 34.2 33.6 34.2 88.2 0 121.8-9 8.8-20.3 15.5-33.8 20-28.5 9.6-47.6 35.8-47.6 65.4v100.6c0 27.6 11 53.6 30.8 73.1 19.9 19.5 46.3 30.3 74.5 30.3h689.4c58 0 105.3-46.4 105.3-103.3V658.5c0-18.8-7.7-36.2-20.6-48.9zM637 787.1c-13.8 0-25-11.2-25-25s11.2-25 25-25 25 11.2 25 25-11.2 25-25 25z m0-100.1c-13.8 0-25-11.2-25-25s11.2-25 25-25 25 11.2 25 25-11.2 25-25 25z m0-100c-13.8 0-25-11.2-25-25s11.2-25 25-25 25 11.2 25 25-11.2 25-25 25z m0-100c-13.8 0-25-11.2-25-25s11.2-25 25-25 25 11.2 25 25-11.2 25-25 25z m0-100c-13.8 0-25-11.2-25-25s11.2-25 25-25 25 11.2 25 25-11.2 25-25 25z m0-100c-13.8 0-25-11.2-25-25s11.2-25 25-25 25 11.2 25 25-11.2 25-25 25z" p-id="9827" fill="#fe4d3d"></path></svg>